<svg width="11" height="15" viewBox="0 0 11 15" fill="none" xmlns="http://www.w3.org/2000/svg">
<g clip-path="url(#clip0_68_409)">
<path d="M8.80154 13.8707C8.27875 14.2957 7.68722 14.587 7.04796 14.7746C3.91234 15.6938 0.73156 13.7126 0.0989136 10.4517C-0.371833 8.02485 0.871605 5.48842 3.06373 4.40534C3.10629 4.3843 3.15287 4.37115 3.19744 4.35449C3.1106 4.47168 2.98666 4.54825 2.88515 4.64908C2.43367 5.09768 2.05868 5.6062 1.7783 6.18105C1.48987 6.77256 1.30641 7.39535 1.23336 8.05642C1.16607 8.66576 1.19224 9.26399 1.31877 9.86135C1.58937 11.1402 2.22029 12.2052 3.21844 13.0206C4.33822 13.9353 5.6271 14.3597 7.07413 14.2547C7.55408 14.22 8.01879 14.1264 8.474 13.9707C8.58156 13.9336 8.68105 13.8652 8.80154 13.8707Z" fill="#A2A2A2"/>
<path d="M8.80159 13.8707C8.68139 13.8649 8.5816 13.9336 8.47434 13.9704C8.01912 14.1265 7.55442 14.2197 7.07447 14.2545C5.62743 14.3594 4.33856 13.935 3.21877 13.0203C2.22063 12.2049 1.58971 11.14 1.31911 9.86107C1.19287 9.26372 1.1667 8.66548 1.2337 8.05614C1.30674 7.39536 1.49021 6.77229 1.77864 6.18078C2.05902 5.60592 2.434 5.09741 2.88548 4.6488C2.98699 4.54798 3.11093 4.47141 3.19778 4.35422C3.53251 4.11779 3.86062 3.87054 4.23158 3.69286C4.27731 3.67094 4.31785 3.63061 4.37537 3.642C4.35265 3.66626 4.33137 3.69227 4.30721 3.71507C2.6261 5.271 2.01732 7.18436 2.57462 9.42065C3.18513 11.8703 5.38444 13.5481 7.8693 13.5531C8.39066 13.5542 8.89822 13.4689 9.40146 13.3432C9.22173 13.5431 9.02388 13.7211 8.80159 13.8707Z" fill="#BBBCBE"/>
<path d="M9.40119 13.3432C8.89794 13.4689 8.39039 13.5542 7.86903 13.5531C5.38417 13.5481 3.18457 11.87 2.57435 9.42066C2.01705 7.18408 2.62583 5.27101 4.30694 3.71507C4.33139 3.69257 4.35238 3.66656 4.3751 3.64201L4.37251 3.64435C4.38717 3.63412 4.40184 3.62389 4.41622 3.61366C4.71471 3.38892 5.01867 3.17324 5.35138 3.00286C5.39768 2.97919 5.44686 2.96136 5.49459 2.94061C5.49574 2.99643 5.45807 3.02946 5.42126 3.06014C4.94563 3.4576 4.57725 3.94654 4.27934 4.48749C3.71053 5.52088 3.47846 6.62763 3.59378 7.81241C3.65359 8.42935 3.80744 9.01707 4.06165 9.57439C4.57409 10.6984 5.36864 11.5658 6.44097 12.1567C7.52251 12.7529 8.67939 12.9414 9.89551 12.7614C9.75345 12.9753 9.58782 13.1685 9.40119 13.3432Z" fill="#ED442A"/>
<path d="M9.89582 12.7616C8.6797 12.9417 7.52282 12.7532 6.44129 12.157C5.36895 11.566 4.5744 10.6986 4.06196 9.57465C3.80775 9.01733 3.65419 8.42962 3.59409 7.81268C3.47906 6.6279 3.71084 5.52115 4.27965 4.48776C4.57728 3.94681 4.94594 3.45758 5.42157 3.06041C5.45838 3.02973 5.49605 2.99699 5.4949 2.94088L5.49433 2.94176C5.51935 2.94234 5.54005 2.93475 5.55386 2.91195C5.86098 2.71059 6.14797 2.47708 6.47723 2.31079C6.53244 2.28303 6.5891 2.25848 6.64517 2.23218C6.6469 2.31868 6.57702 2.35814 6.52669 2.40548C6.0594 2.84502 5.66859 3.34506 5.377 3.9208C5.04141 4.58333 4.83666 5.28385 4.77167 6.03054C4.72538 6.56273 4.74493 7.08819 4.84989 7.60723C5.03997 8.54594 5.42876 9.39083 6.04531 10.1244C6.48471 10.6469 6.99341 11.0794 7.58523 11.4123C8.43125 11.8881 9.34312 12.1014 10.3042 12.1201C10.1949 12.3513 10.0569 12.5641 9.89582 12.7616Z" fill="#EF5D29"/>
<path d="M10.3042 12.1198C9.34312 12.1014 8.43124 11.8878 7.58522 11.412C6.9937 11.0794 6.48471 10.6469 6.0453 10.1241C5.42847 9.39052 5.03968 8.54562 4.84989 7.60692C4.74493 7.08788 4.72537 6.56242 4.77167 6.03023C4.83666 5.28324 5.04112 4.58301 5.377 3.92048C5.66859 3.34475 6.05939 2.84471 6.52669 2.40517C6.57701 2.35782 6.64689 2.31837 6.64517 2.23186C6.66185 2.22456 6.67881 2.21696 6.69549 2.20965C6.7231 2.21111 6.74697 2.20468 6.76048 2.17721C7.07249 1.96095 7.37444 1.7289 7.71578 1.55969C7.77099 1.53222 7.8285 1.50884 7.88487 1.4837C7.88113 1.53192 7.85007 1.56378 7.81643 1.59096C7.55215 1.80313 7.33216 2.05739 7.12397 2.32451C6.36882 3.29302 5.98549 4.40094 5.92999 5.62897C5.91302 6.00247 5.94868 6.37362 6.01108 6.74332C6.18736 7.78986 6.62418 8.71104 7.31318 9.50274C7.84173 10.1097 8.47064 10.587 9.20883 10.9082C9.67641 11.1116 10.1572 11.265 10.6636 11.3284C10.5693 11.6043 10.458 11.872 10.3042 12.1198Z" fill="#F27E28"/>
<path d="M10.6632 11.3288C10.1568 11.265 9.67603 11.1119 9.20845 10.9085C8.47026 10.5873 7.84107 10.1101 7.31281 9.50307C6.62351 8.71137 6.1867 7.7902 6.01071 6.74365C5.94859 6.37395 5.91265 6.0028 5.92961 5.6293C5.9854 4.40127 6.36844 3.29335 7.12359 2.32484C7.33179 2.05772 7.55206 1.80346 7.81605 1.59129C7.8497 1.56411 7.88075 1.53226 7.88449 1.48403C7.88708 1.47761 7.89168 1.47585 7.89801 1.47877C7.91238 1.47118 7.92676 1.46328 7.94085 1.45569C8.26178 1.23679 8.57034 0.997439 8.92059 0.825889C8.97609 0.798709 9.03332 0.775622 9.08968 0.750488C9.08681 0.782343 9.06639 0.799878 9.04396 0.820336C8.44151 1.3724 7.94632 2.00336 7.60871 2.76117C7.29095 3.47513 7.13365 4.22329 7.10979 5.00038C7.09771 5.39696 7.14199 5.79384 7.2228 6.18341C7.42352 7.15338 7.84136 8.01815 8.48234 8.76368C8.86739 9.2117 9.31485 9.59191 9.82528 9.8903C10.1698 10.092 10.5215 10.2764 10.9126 10.3687C10.8697 10.6992 10.7806 11.0178 10.6632 11.3288Z" fill="#F8A526"/>
<path d="M10.9131 10.3687C10.522 10.2763 10.1704 10.0919 9.82585 9.89027C9.3157 9.59188 8.86825 9.21166 8.48291 8.76364C7.84192 8.01811 7.42409 7.15335 7.22337 6.18337C7.14285 5.7938 7.09828 5.39693 7.11036 5.00035C7.13394 4.22326 7.29123 3.47539 7.60928 2.76113C7.9466 2.00333 8.44208 1.37236 9.04453 0.820301C9.06667 0.799844 9.08738 0.782309 9.09025 0.750454L9.08968 0.750746C9.10923 0.741394 9.12879 0.732042 9.14834 0.722398C9.50118 0.465803 9.85403 0.209208 10.2546 0.0321045C10.2612 0.039703 10.2678 0.0473015 10.2745 0.0549C9.95784 0.350949 9.64986 0.655181 9.39536 1.01026C8.62612 2.08457 8.25228 3.28133 8.31612 4.61341C8.3167 4.69115 8.31181 4.76947 8.31929 4.84633C8.43345 6.03286 8.86566 7.08525 9.628 7.99152C10.0156 8.4524 10.4594 8.85073 10.987 9.14386C11.0167 9.55593 10.9957 9.9642 10.9131 10.3687Z" fill="#F6B81E"/>
<path d="M10.9874 9.14477C10.4597 8.85135 10.016 8.45331 9.62838 7.99243C8.86575 7.08617 8.43383 6.03377 8.31966 4.84724C8.31219 4.77009 8.31736 4.69206 8.3165 4.61432C9.7112 5.4785 10.5664 6.72933 10.9009 8.35015C10.9546 8.61112 10.9949 8.87561 10.9874 9.14477Z" fill="#DBDBDB"/>
<path d="M5.55354 2.91193C5.54003 2.93472 5.51904 2.94232 5.49402 2.94174C5.50782 2.91865 5.52939 2.91251 5.55354 2.91193Z" fill="#ED442A"/>
<path d="M6.76042 2.17755C6.74691 2.20502 6.72304 2.21145 6.69543 2.20999C6.71039 2.18573 6.73483 2.18047 6.76042 2.17755Z" fill="#EF5D29"/>
<path d="M9.14839 0.722701C9.12883 0.732053 9.10928 0.741405 9.08972 0.751049C9.10381 0.730007 9.12365 0.721532 9.14839 0.722701Z" fill="#F8A526"/>
<path d="M10.2992 0.0224549C10.3009 0.0043354 10.3115 -0.00238634 10.3279 0.000536157C10.3305 0.00112066 10.3317 0.00842689 10.3337 0.0128106C10.321 0.0151486 10.3087 0.0171944 10.296 0.0195324C10.2963 0.0195324 10.2992 0.0224549 10.2992 0.0224549Z" fill="#F6B81E"/>
<path d="M4.41651 3.61365C4.40185 3.62388 4.38718 3.6341 4.3728 3.64433C4.37424 3.61482 4.39696 3.61657 4.41651 3.61365Z" fill="#BBBCBE"/>
<path d="M10.2546 0.0323902C10.2696 0.0291755 10.2845 0.0256685 10.2992 0.0224537L10.296 0.0195312C10.3099 0.0446647 10.2909 0.0490485 10.2745 0.0551857C10.2679 0.0475872 10.2613 0.0399887 10.2546 0.0323902Z" fill="#F6B81E"/>
<path d="M7.94116 1.45569C7.92678 1.46329 7.91269 1.47118 7.89832 1.47878C7.91241 1.47118 7.92678 1.46329 7.94116 1.45569Z" fill="#F27E28"/>
</g>
<defs>
<clipPath id="clip0_68_409">
<rect width="11" height="15" fill="white"/>
</clipPath>
</defs>
</svg>
