<svg width="63" height="88" viewBox="0 0 63 88" fill="none" xmlns="http://www.w3.org/2000/svg">
<path d="M50.4089 81.6008C47.4147 84.0088 44.0269 85.6599 40.3657 86.7231C22.4071 91.9315 4.18993 80.7049 0.566594 62.2263C-2.1295 48.4743 4.99201 34.1011 17.5469 27.9637C17.7906 27.8445 18.0574 27.7699 18.3127 27.6755C17.8153 28.3396 17.1055 28.7735 16.5241 29.3449C13.9384 31.887 11.7907 34.7685 10.1849 38.026C8.533 41.3779 7.48223 44.9071 7.0639 48.6531C6.67851 52.106 6.82839 55.496 7.55305 58.8811C9.10285 66.1281 12.7163 72.1628 18.433 76.7833C24.8463 81.9668 32.228 84.3715 40.5156 83.7769C43.2644 83.5798 45.9259 83.0499 48.533 82.1672C49.149 81.9569 49.7189 81.5694 50.4089 81.6008Z" fill="#A2A2A2"/>
<path d="M50.4089 81.6008C49.7205 81.5677 49.149 81.9569 48.5347 82.1655C45.9275 83.0499 43.266 83.5782 40.5172 83.7752C32.2296 84.3698 24.8479 81.9651 18.4346 76.7816C12.7179 72.1611 9.10448 66.1264 7.55467 58.8794C6.83165 55.4944 6.68178 52.1044 7.06552 48.6514C7.48385 44.907 8.53462 41.3763 10.1865 38.0244C11.7923 34.7668 13.94 31.8853 16.5257 29.3432C17.1071 28.7718 17.817 28.3379 18.3143 27.6739C20.2314 26.3341 22.1106 24.933 24.2352 23.9261C24.4971 23.8019 24.7293 23.5734 25.0587 23.638C24.9286 23.7754 24.8067 23.9228 24.6684 24.052C15.0402 32.869 11.5535 43.7113 14.7454 56.3837C18.2419 70.2649 30.8379 79.7725 45.0694 79.8006C48.0554 79.8073 50.9623 79.3237 53.8445 78.6116C52.8151 79.7443 51.682 80.7529 50.4089 81.6008Z" fill="#BBBCBE"/>
<path d="M53.8428 78.6115C50.9606 79.3236 48.0537 79.8072 45.0678 79.8006C30.8363 79.7724 18.2386 70.2632 14.7437 56.3836C11.5519 43.7096 15.0385 32.8689 24.6667 24.0519C24.8067 23.9244 24.9269 23.777 25.057 23.6379L25.0422 23.6512C25.1262 23.5932 25.2102 23.5352 25.2926 23.4773C27.0021 22.2038 28.743 20.9816 30.6485 20.0161C30.9137 19.8819 31.1953 19.7809 31.4687 19.6633C31.4753 19.9796 31.2595 20.1668 31.0487 20.3407C28.3246 22.5929 26.2149 25.3636 24.5086 28.429C21.2509 34.2849 19.9218 40.5564 20.5822 47.2702C20.9248 50.7662 21.8059 54.0966 23.2618 57.2547C26.1967 63.624 30.7473 68.5392 36.8889 71.8878C43.0832 75.2662 49.7089 76.3344 56.674 75.3143C55.8604 76.5265 54.9117 77.6212 53.8428 78.6115Z" fill="#ED442A"/>
<path d="M56.6756 75.3159C49.7106 76.336 43.0848 75.2678 36.8906 71.8894C30.749 68.5408 26.1984 63.6256 23.2635 57.2563C21.8076 54.0981 20.9281 50.7678 20.5839 47.2718C19.9251 40.558 21.2525 34.2865 24.5103 28.4306C26.2149 25.3652 28.3263 22.5929 31.0504 20.3423C31.2612 20.1684 31.477 19.9829 31.4704 19.6649L31.4671 19.6699C31.6104 19.6732 31.7289 19.6301 31.808 19.501C33.567 18.3599 35.2106 17.0367 37.0964 16.0944C37.4126 15.9371 37.7371 15.798 38.0583 15.6489C38.0681 16.1391 37.6679 16.3627 37.3797 16.631C34.7034 19.1217 32.4651 21.9553 30.7951 25.2178C28.8731 28.9721 27.7004 32.9417 27.3282 37.173C27.0631 40.1887 27.1751 43.1664 27.7762 46.1076C28.8649 51.4269 31.0916 56.2146 34.6227 60.3714C37.1392 63.3325 40.0527 65.7835 43.4422 67.6697C48.2876 70.3658 53.5102 71.5748 59.0143 71.6808C58.3885 72.9907 57.5979 74.1963 56.6756 75.3159Z" fill="#EF5D29"/>
<path d="M59.0143 71.6791C53.5102 71.5748 48.2876 70.3642 43.4422 67.6681C40.0544 65.7835 37.1392 63.3325 34.6227 60.3698C31.0899 56.213 28.8632 51.4253 27.7762 46.1059C27.1751 43.1647 27.0631 40.1871 27.3282 37.1714C27.7004 32.9384 28.8714 28.9705 30.7951 25.2161C32.4651 21.9536 34.7034 19.1201 37.3797 16.6293C37.6679 16.3611 38.0681 16.1375 38.0583 15.6473C38.1538 15.6059 38.251 15.5628 38.3465 15.5214C38.5046 15.5297 38.6413 15.4933 38.7187 15.3376C40.5057 14.1121 42.235 12.7972 44.1899 11.8383C44.5062 11.6826 44.8356 11.5501 45.1584 11.4077C45.1369 11.681 44.9591 11.8615 44.7664 12.0155C43.2528 13.2178 41.9929 14.6586 40.8005 16.1723C36.4755 21.6605 34.2801 27.9387 33.9622 34.8976C33.8651 37.014 34.0693 39.1173 34.4267 41.2122C35.4363 47.1426 37.938 52.3626 41.8842 56.8489C44.9113 60.2886 48.5132 62.993 52.741 64.813C55.419 65.9656 58.1727 66.8351 61.0731 67.1945C60.5329 68.7578 59.8955 70.2748 59.0143 71.6791Z" fill="#F27E28"/>
<path d="M61.0714 67.1962C58.1711 66.8352 55.4173 65.9674 52.7393 64.8147C48.5116 62.9947 44.908 60.2903 41.8825 56.8506C37.9347 52.3643 35.433 47.1444 34.425 41.2139C34.0693 39.119 33.8634 37.0158 33.9606 34.8993C34.2801 27.9404 36.4738 21.6622 40.7988 16.174C41.9912 14.6603 43.2528 13.2195 44.7647 12.0172C44.9574 11.8632 45.1353 11.6827 45.1567 11.4094C45.1715 11.373 45.1979 11.3631 45.2341 11.3796C45.3164 11.3366 45.3988 11.2919 45.4795 11.2488C47.3175 10.0084 49.0847 8.65207 51.0907 7.67995C51.4086 7.52594 51.7363 7.39511 52.0591 7.25269C52.0427 7.4332 51.9257 7.53256 51.7973 7.64849C48.3469 10.7768 45.5108 14.3523 43.5772 18.6465C41.7573 22.6923 40.8564 26.9319 40.7197 31.3354C40.6506 33.5827 40.9042 35.8317 41.367 38.0392C42.5166 43.5358 44.9096 48.4361 48.5807 52.6608C50.786 55.1995 53.3487 57.3541 56.2721 59.045C58.2452 60.1876 60.2594 61.2326 62.4993 61.756C62.2539 63.629 61.7433 65.4341 61.0714 67.1962Z" fill="#F8A526"/>
<path d="M62.5026 61.7558C60.2627 61.2325 58.2485 60.1875 56.2754 59.0448C53.3537 57.3539 50.791 55.1994 48.5841 52.6606C44.913 48.4359 42.5199 43.5356 41.3703 38.0391C40.9092 35.8315 40.6539 33.5826 40.7231 31.3353C40.8581 26.9317 41.759 22.6938 43.5806 18.6464C45.5125 14.3521 48.3502 10.7767 51.8006 7.64833C51.9274 7.53241 52.046 7.43304 52.0625 7.25253L52.0592 7.25419C52.1712 7.20119 52.2832 7.1482 52.3952 7.09355C54.416 5.63951 56.4368 4.18547 58.7311 3.18188C58.7689 3.22494 58.8068 3.268 58.8447 3.31106C57.0314 4.98867 55.2675 6.71265 53.8099 8.72479C49.4043 14.8125 47.2632 21.5942 47.6288 29.1426C47.6321 29.5831 47.6041 30.027 47.6469 30.4625C48.3008 37.1862 50.7762 43.1497 55.1423 48.2852C57.3624 50.8969 59.9037 53.1541 62.9259 54.8152C63.0955 57.1502 62.9753 59.4638 62.5026 61.7558Z" fill="#F6B81E"/>
<path d="M62.9275 54.8203C59.9053 53.1576 57.364 50.902 55.1439 48.2903C50.7762 43.1548 48.3024 37.1913 47.6486 30.4676C47.6057 30.0304 47.6354 29.5882 47.6304 29.1477C55.6183 34.0447 60.5164 41.1328 62.4318 50.3174C62.7398 51.7963 62.9703 53.295 62.9275 54.8203Z" fill="#DBDBDB"/>
<path d="M31.8063 16.501C31.7289 16.6302 31.6087 16.6732 31.4654 16.6699C31.5444 16.5391 31.668 16.5043 31.8063 16.501Z" fill="#ED442A"/>
<path d="M38.7187 12.3394C38.6413 12.495 38.5046 12.5315 38.3465 12.5232C38.4321 12.3857 38.5721 12.3559 38.7187 12.3394Z" fill="#EF5D29"/>
<path d="M52.3952 4.09533C52.2832 4.14832 52.1712 4.20131 52.0592 4.25597C52.1399 4.13673 52.2535 4.0887 52.3952 4.09533Z" fill="#F8A526"/>
<path d="M58.9863 0.127448C58.9962 0.0247707 59.0571 -0.0133191 59.151 0.00324167C59.1658 0.00655383 59.1724 0.0479559 59.184 0.0727971C59.1115 0.0860457 59.0407 0.0976383 58.9682 0.110887C58.9698 0.110887 58.9863 0.127448 58.9863 0.127448Z" fill="#F6B81E"/>
<path d="M25.2942 20.4773C25.2102 20.5353 25.1262 20.5932 25.0439 20.6512C25.0521 20.4839 25.1822 20.4939 25.2942 20.4773Z" fill="#BBBCBE"/>
<path d="M58.7311 0.183707C58.8167 0.165491 58.9024 0.145618 58.9864 0.127401L58.9682 0.11084C59.0473 0.253263 58.9386 0.278104 58.8447 0.312882C58.8068 0.269824 58.769 0.226765 58.7311 0.183707Z" fill="#F6B81E"/>
<path d="M45.4812 8.24878C45.3988 8.29184 45.3181 8.33655 45.2358 8.37961C45.3165 8.33655 45.3988 8.29184 45.4812 8.24878Z" fill="#F27E28"/>
</svg>
